<svg xmlns="http://www.w3.org/2000/svg" viewBox="0 0 250 250" width="250" height="250">
  <rect width="250" height="250" rx="24" fill="#111008"/>
  <circle cx="125" cy="105" r="78" fill="none" stroke="#c9a84c" stroke-width="0.6" stroke-dasharray="4 6" opacity="0.3"/>
  <circle cx="125" cy="105" r="68" fill="none" stroke="#c9a84c" stroke-width="1.5" opacity="0.4"/>
  <circle cx="125" cy="105" r="58" fill="none" stroke="#c9a84c" stroke-width="0.5" opacity="0.2"/>
  <line x1="125" y1="37" x2="125" y2="29" stroke="#c9a84c" stroke-width="2" opacity="0.7"/>
  <line x1="173" y1="53" x2="178" y2="47" stroke="#c9a84c" stroke-width="2" opacity="0.7"/>
  <line x1="193" y1="105" x2="201" y2="105" stroke="#c9a84c" stroke-width="2" opacity="0.7"/>
  <line x1="173" y1="157" x2="178" y2="163" stroke="#c9a84c" stroke-width="2" opacity="0.7"/>
  <line x1="125" y1="173" x2="125" y2="181" stroke="#c9a84c" stroke-width="2" opacity="0.7"/>
  <line x1="77" y1="157" x2="72" y2="163" stroke="#c9a84c" stroke-width="2" opacity="0.7"/>
  <line x1="57" y1="105" x2="49" y2="105" stroke="#c9a84c" stroke-width="2" opacity="0.7"/>
  <line x1="77" y1="53" x2="72" y2="47" stroke="#c9a84c" stroke-width="2" opacity="0.7"/>
  <circle cx="125" cy="105" r="42" fill="#c9a84c"/>
  <circle cx="142" cy="90" r="32" fill="#111008"/>
  <circle cx="103" cy="112" r="5" fill="#c9a84c"/>
  <circle cx="96" cy="100" r="2.5" fill="#c9a84c" opacity="0.7"/>
  <text x="125" y="210" font-family="Rajdhani, sans-serif" font-size="34" font-weight="800" fill="#ffffff" text-anchor="middle" letter-spacing="-1">SOOQ<tspan fill="#c9a84c">GG</tspan></text>
</svg>